<svg width="52" height="52" viewBox="0 0 52 52" fill="none" xmlns="http://www.w3.org/2000/svg">
<rect width="52" height="52" rx="26" fill="#151618"/>
<path d="M31.8202 17.2694C32.6239 16.4658 33.9268 16.4658 34.7304 17.2694C35.5341 18.073 35.5341 19.376 34.7304 20.1796L20.1794 34.7306C19.3758 35.5343 18.0729 35.5343 17.2692 34.7306C16.4656 33.927 16.4656 32.6241 17.2692 31.8204L31.8202 17.2694Z" fill="#FBFBFB"/>
<path d="M34.7304 31.8204C35.5341 32.6241 35.5341 33.927 34.7304 34.7306C33.9268 35.5343 32.6239 35.5343 31.8202 34.7306L17.2692 20.1796C16.4656 19.376 16.4656 18.073 17.2692 17.2694C18.0729 16.4658 19.3758 16.4658 20.1794 17.2694L34.7304 31.8204Z" fill="#FBFBFB"/>
</svg>
