<svg width="28" height="28" viewBox="0 0 28 28" fill="none" xmlns="http://www.w3.org/2000/svg">
<path d="M19.8202 5.26941C20.6239 4.46578 21.9268 4.46578 22.7304 5.26941C23.5341 6.07304 23.5341 7.37598 22.7304 8.17961L8.17943 22.7306C7.3758 23.5343 6.07286 23.5343 5.26923 22.7306C4.4656 21.927 4.4656 20.6241 5.26923 19.8204L19.8202 5.26941Z" fill="#FBFBFB"/>
<path d="M22.7304 19.8204C23.5341 20.6241 23.5341 21.927 22.7304 22.7306C21.9268 23.5343 20.6239 23.5343 19.8202 22.7306L5.26923 8.17961C4.4656 7.37598 4.4656 6.07304 5.26923 5.26941C6.07286 4.46578 7.3758 4.46578 8.17943 5.26941L22.7304 19.8204Z" fill="#FBFBFB"/>
</svg>
