<svg width="24" height="24" viewBox="0 0 24 24" fill="none" xmlns="http://www.w3.org/2000/svg">
<path d="M19.325 9.46823C19.325 9.46823 18.782 16.2032 18.467 19.0402C18.317 20.3952 17.48 21.1892 16.109 21.2142C13.5 21.2612 10.888 21.2642 8.27997 21.2092C6.96097 21.1822 6.13797 20.3782 5.99097 19.0472C5.67397 16.1852 5.13397 9.46823 5.13397 9.46823" stroke="#151618" stroke-width="1.5" stroke-linecap="round" stroke-linejoin="round"/>
<path d="M20.7082 6.23975H3.75024" stroke="#151618" stroke-width="1.5" stroke-linecap="round" stroke-linejoin="round"/>
<path d="M17.4406 6.23973C16.6556 6.23973 15.9796 5.68473 15.8256 4.91573L15.5826 3.69973C15.4326 3.13873 14.9246 2.75073 14.3456 2.75073H10.1126C9.53364 2.75073 9.02564 3.13873 8.87564 3.69973L8.63264 4.91573C8.47864 5.68473 7.80264 6.23973 7.01764 6.23973" stroke="#151618" stroke-width="1.5" stroke-linecap="round" stroke-linejoin="round"/>
</svg>
